<?xml version="1.0" encoding="UTF-8"?>
<svg id="Layer_1" xmlns="http://www.w3.org/2000/svg" version="1.1" viewBox="0 0 500 500">
  <!-- Generator: Adobe Illustrator 30.2.1, SVG Export Plug-In . SVG Version: 2.1.1 Build 1)  -->
  <defs>
    <style>
      .st0, .st1 {
        fill: #fff;
      }

      .st0, .st2 {
        fill-rule: evenodd;
      }

      .st3 {
        fill: #3e302b;
      }

      .st4, .st2 {
        fill: #453623;
      }
    </style>
  </defs>
  <rect class="st3" x="0" width="500" height="500"/>
  <path class="st1" d="M36.83,140.79c.25-.53.56-1.08.93-1.66.36-.58.74-1.13,1.14-1.65.4-.52.77-.99,1.12-1.41.35-.42.65-.73.91-.93l5.49,2.67-.22.45c-1.58-.77-3.09-.83-4.53-.18-1.44.65-2.53,1.75-3.28,3.3-.88,1.81-1.02,3.56-.43,5.23.59,1.67,1.65,2.88,3.17,3.62.63.3,1.43.52,2.41.65.98.13,2.01-.01,3.11-.42l13.74-5.38c1.41-.54,2.71-.72,3.93-.54,1.22.18,2.32.51,3.31,1,2.74,1.33,4.56,3.24,5.47,5.74.91,2.5.67,5.17-.71,8-.38.79-.92,1.68-1.6,2.67-.69.99-1.48,1.89-2.38,2.7-.9.81-1.84,1.38-2.82,1.72-.57-.16-1.26-.43-2.05-.81-.79-.38-1.59-.85-2.4-1.41-.81-.55-1.52-1.13-2.14-1.71l.22-.44c1.6.98,3.17,1.48,4.72,1.49,1.54.01,2.91-.39,4.11-1.22,1.19-.83,2.11-1.98,2.75-3.46.78-1.86.9-3.73.36-5.6-.54-1.87-1.8-3.29-3.78-4.25-.96-.47-1.9-.72-2.84-.77-.93-.05-1.84.11-2.7.46l-13.42,5.22c-1.4.54-2.75.74-4.05.6-1.3-.14-2.42-.44-3.38-.91-1.39-.67-2.56-1.65-3.53-2.93-.97-1.28-1.54-2.77-1.71-4.47-.17-1.69.19-3.48,1.11-5.36ZM40.33,134.84l1.04.5-1.83,3.76-1.04-.51,1.83-3.76Z"/>
  <path class="st1" d="M55.64,110.27l3.37,1.92,19.87,32.23-1.98,2.64-18.26-31.36c-.49-.87-.92-1.62-1.28-2.23-.36-.62-.73-1.19-1.11-1.73-.38-.54-.68-.89-.92-1.07l.3-.4ZM55.64,110.27l40.9,10.4-2.81,3.74-34.58-10.12-3.51-4.02ZM79.68,118.65l1.32.99-10.35,13.76-1.32-.99,10.35-13.76ZM76.7,140.91c.43.65.91,1.05,1.43,1.21.52.16,1.02.16,1.49-.01.47-.17.84-.43,1.11-.78l.3-.4.44.33-6.65,8.84-.44-.33.3-.4c.51-.67.82-1.53.93-2.57.12-1.04-.15-2.16-.79-3.38l1.88-2.51ZM89.96,123.28l2.71-3.6c1.33.31,2.48.26,3.45-.16.98-.41,1.72-.95,2.22-1.63l.27-.35.44.33-7.44,9.89-.44-.33.3-.4c.42-.56.55-1.24.4-2.04-.15-.8-.79-1.37-1.91-1.71Z"/>
  <path class="st1" d="M79.18,90.54l-.12.11c-.67-.68-1.48-1.04-2.44-1.09-.96-.05-1.79.25-2.49.89l-.53.48-.37-.41,3.26-2.96,2.7,2.97ZM79,85.28l25.88,28.5-2.65,2.4-25.88-28.5,2.65-2.4ZM81.58,88.36l-2.7-2.97,3.26-2.96.37.41s-.2.18-.53.48c-.71.64-1.08,1.44-1.13,2.4-.05.96.24,1.8.85,2.53l-.12.11ZM99.66,113.1l2.7,2.97-3.26,2.96-.37-.41.53-.48c.71-.64,1.08-1.44,1.13-2.4.05-.96-.24-1.8-.85-2.53l.12-.11ZM114.73,102.53l1.15,1.26-11.12,10.09-1.15-1.26,11.12-10.09ZM112.37,94.94l3.63,8.74-6.76,6.14.32-2.59c1.44-1.31,2.41-2.6,2.91-3.87.5-1.27.67-2.58.5-3.91-.17-1.33-.5-2.71-1.01-4.14l.41-.37Z"/>
  <path class="st1" d="M114.93,56.86c3.33-2.07,6.7-3.17,10.11-3.32,3.4-.15,6.61.62,9.61,2.29,3,1.68,5.56,4.22,7.66,7.61,2.11,3.4,3.24,6.81,3.41,10.25s-.57,6.64-2.22,9.62c-1.65,2.98-4.14,5.51-7.47,7.57-3.3,2.05-6.66,3.15-10.06,3.29-3.4.15-6.6-.62-9.61-2.3-3-1.68-5.56-4.21-7.66-7.61-2.11-3.4-3.24-6.81-3.41-10.25s.57-6.64,2.22-9.63c1.65-2.98,4.12-5.5,7.43-7.54ZM135.15,89.49c2.65-1.64,4.56-3.73,5.73-6.26,1.17-2.54,1.58-5.31,1.24-8.34-.34-3.02-1.48-6.09-3.41-9.21-1.93-3.12-4.18-5.5-6.73-7.15-2.56-1.65-5.23-2.52-8.02-2.6-2.79-.08-5.51.7-8.16,2.34-2.62,1.62-4.51,3.7-5.68,6.24-1.17,2.53-1.58,5.31-1.24,8.34.34,3.02,1.48,6.09,3.41,9.21,1.93,3.12,4.17,5.5,6.73,7.15,2.55,1.65,5.23,2.52,8.02,2.6,2.79.08,5.49-.69,8.11-2.31Z"/>
  <path class="st1" d="M143.3,41.27l3.34,2.05,12.59,33.99-2.37.87-11.22-30.45c-.65-1.75-1.6-3.85-2.84-6.28l.52-.19ZM143.3,41.27l41.78,20.94,2.54,5.45-41.76-20.89-2.56-5.51ZM155.65,74.47l1.35,3.66-4.28,1.58-.19-.52c.62-.23.95-.35.98-.36.86-.32,1.49-.9,1.88-1.75s.43-1.7.11-2.56l.16-.06ZM157.87,73.65c.32.86.9,1.49,1.75,1.88.85.39,1.7.43,2.56.11.03-.01.36-.13.98-.36l.19.52-4.28,1.58-1.35-3.66.16-.06ZM167.53,33.22l4.28-1.58,1.35,3.66-.1.04c-.36-.88-.96-1.51-1.78-1.89-.83-.38-1.68-.41-2.58-.08-.62.23-.95.35-.98.36l-.19-.52ZM174.03,30.82l11.15,30.24c.41,1.1.83,2.15,1.27,3.13.44.99.98,2.09,1.63,3.3l-.47.17-3.33-1.88-12.57-34.11,2.32-.86ZM178.16,29.3l.19.52-.93.34c-.86.32-1.49.89-1.89,1.72-.4.83-.45,1.7-.15,2.61l-.16.06-1.35-3.66,4.28-1.58Z"/>
  <path class="st1" d="M206.79,27.54l-.16.02c-.1-.95-.54-1.72-1.3-2.32-.77-.6-1.62-.85-2.57-.74l-.66.07-.11-.54,4.37-.47.43,3.99ZM210.07,57.83l.43,3.99-4.37.47-.06-.55.71-.08c.95-.1,1.72-.53,2.32-1.28s.87-1.6.8-2.55l.16-.02ZM209.75,23.18l4.15,38.28-3.55.38-4.15-38.28,3.55-.38ZM220.52,22.01c3.9-.42,7.4,0,10.51,1.27,3.1,1.27,5.64,3.25,7.61,5.95s3.16,5.96,3.58,9.79c.42,3.83-.05,7.26-1.4,10.3-1.35,3.04-3.4,5.52-6.16,7.44-2.76,1.92-6.09,3.09-9.99,3.52l-11.7,1.27-.23-1.64c1.57-.17,2.94-.32,4.13-.45s2.36-.25,3.53-.38c1.17-.13,2.53-.27,4.1-.44,3.13-.34,5.78-1.36,7.94-3.07,2.16-1.71,3.74-3.95,4.75-6.71s1.32-5.9.95-9.4c-.38-3.5-1.36-6.49-2.94-8.98s-3.61-4.33-6.1-5.53c-2.49-1.2-5.29-1.64-8.39-1.3-1.64.18-3.07.33-4.29.46-1.22.13-2.44.27-3.66.4-1.22.13-2.67.29-4.35.47l-.18-1.64,12.3-1.33Z"/>
  <path class="st1" d="M251.01,54.76l-.15,4.01-4.4-.17.02-.55.72.03c.95.04,1.78-.27,2.48-.92s1.09-1.45,1.17-2.41h.16ZM252.17,24.31h-.17c.04-.96-.28-1.79-.95-2.49-.67-.7-1.48-1.07-2.44-1.11l-.66-.02-.03-.55,4.4.17-.15,4.01ZM255.73,20.43l-1.46,38.47-3.57-.14,1.46-38.47,3.57.14ZM269.17,57.76l-.07,1.7-15-.57.06-1.7,15,.57ZM267.49,39.59l-.06,1.65-12.64-.48.06-1.65,12.64.48ZM270.56,20.99l-.06,1.7-15-.57.06-1.7,15,.57ZM272.79,50.69l-3.53,8.78-9.12-.35,2.04-1.63c1.94.07,3.54-.17,4.79-.73,1.25-.56,2.28-1.37,3.09-2.44.81-1.07,1.54-2.29,2.18-3.66l.55.02ZM270.6,20l-.06,1.6-6.68-.86c.81.03,1.66,0,2.56-.07.9-.08,1.74-.17,2.52-.29.78-.12,1.33-.24,1.67-.38ZM267.43,41.13l-.14,3.63-.55-.02.03-.83c.03-.73-.2-1.37-.7-1.92-.49-.55-1.11-.84-1.84-.87v-.11s3.19.12,3.19.12ZM267.63,36.07l-.14,3.63-3.19-.12v-.11c.74,0,1.37-.27,1.91-.78.53-.51.81-1.13.84-1.87l.03-.77.55.02ZM270.51,22.53l-.17,4.4-.55-.02.04-.99c.03-.88-.25-1.65-.85-2.32-.6-.66-1.35-1.03-2.27-1.1v-.11s3.8.14,3.8.14Z"/>
  <path class="st1" d="M293.47,58.75l-.89,3.92-4.29-.97.18-.52c.07.02.19.04.35.08.16.04.26.06.3.07.93.21,1.81.06,2.64-.45.83-.51,1.35-1.23,1.56-2.16l.16.04ZM304.41,25.86l-8.5,37.55-3.49-.79,8.5-37.55,3.49.79ZM307.47,26.56c2.5.57,4.54,1.42,6.1,2.56,1.56,1.14,2.64,2.49,3.23,4.03.59,1.54.68,3.21.28,5-.34,1.5-.92,2.75-1.75,3.75-.83,1-1.77,1.74-2.82,2.24-1.05.5-2.11.77-3.18.83,1.83.72,3.33,1.71,4.48,2.99s1.94,2.72,2.35,4.34c.4,1.61.41,3.32,0,5.1-.45,2-1.33,3.66-2.64,4.96s-3,2.16-5.07,2.57c-2.07.42-4.43.32-7.07-.28l-5.95-1.35c.18-.64.34-1.28.49-1.92l5.69,1.29c1.86.42,3.51.45,4.94.08,1.44-.37,2.64-1.12,3.61-2.26.97-1.13,1.66-2.59,2.06-4.38.45-2,.44-3.72-.05-5.14-.49-1.43-1.27-2.6-2.33-3.52-1.07-.92-2.29-1.65-3.65-2.21s-2.68-.97-3.97-1.27l.11-.48c.82.19,1.75.3,2.8.35,1.04.05,2.09-.09,3.14-.42,1.05-.33,2-.95,2.85-1.86.84-.92,1.46-2.24,1.85-3.95.36-1.61.38-3.05.05-4.33-.33-1.28-1.01-2.34-2.04-3.2-1.03-.85-2.4-1.47-4.12-1.86l-4.94-1.12s0-.2-.03-.49c-.03-.29-.07-.74-.12-1.35l5.69,1.29ZM300.2,29.03l-.16-.04c.21-.93.05-1.8-.48-2.62-.53-.81-1.26-1.33-2.19-1.54-.04,0-.13-.03-.29-.07-.16-.04-.28-.06-.35-.08l.07-.55,4.29.97-.89,3.92Z"/>
  <path class="st1" d="M322.17,66.12l-1.4,3.76-4.13-1.53.19-.51.67.25c.89.33,1.78.3,2.65-.1.87-.4,1.49-1.04,1.86-1.92l.16.06ZM337.36,34.97l-13.39,36.1-3.35-1.24,13.39-36.1,3.35,1.24ZM338.49,74.63l-.59,1.6-14.08-5.22.59-1.6,14.08,5.22ZM344.14,69.04l-6.09,7.25-8.56-3.17,2.45-.91c1.82.68,3.41.94,4.78.8,1.36-.14,2.6-.59,3.7-1.36s2.17-1.7,3.21-2.8l.52.19ZM332.77,37.55l-.15-.06c.33-.89.29-1.78-.13-2.66-.42-.88-1.07-1.48-1.97-1.81l-.62-.23.14-.53,4.12,1.53-1.4,3.76ZM342.57,56.84l-.58,1.55-11.86-4.4.58-1.55,11.86,4.4ZM351.29,40.13l-.59,1.6-14.08-5.22.59-1.6,14.08,5.22ZM342.03,58.29l-1.26,3.4-.52-.19.29-.77c.26-.69.24-1.37-.06-2.05-.3-.68-.79-1.14-1.48-1.4l.04-.1,2.99,1.11ZM343.79,53.54l-1.26,3.4-2.99-1.11.04-.1c.7.22,1.38.17,2.05-.15.67-.32,1.13-.82,1.38-1.51l.27-.72.52.19ZM351.63,39.2l-.55,1.49-6.08-2.9c.76.28,1.58.53,2.46.74.88.21,1.71.38,2.48.51.77.13,1.34.18,1.7.16ZM350.75,41.58l-1.53,4.13-.52-.19.34-.93c.31-.83.28-1.65-.08-2.47-.36-.82-.96-1.4-1.81-1.76l.04-.1,3.56,1.32Z"/>
  <path class="st1" d="M349.7,77.12c-.59.51-.92,1.04-1.01,1.58s-.02,1.03.21,1.48c.23.45.54.78.92.99l.43.24-.27.48-9.63-5.42.27-.48.43.24c.73.41,1.62.61,2.67.59s2.13-.43,3.25-1.23l2.73,1.54ZM377.3,52.2l-1.46,3.6-29.33,23.95-2.88-1.62,28.68-22.23c.8-.6,1.48-1.12,2.05-1.56.56-.44,1.08-.88,1.57-1.33.48-.44.79-.79.94-1.05l.43.24ZM372.15,77.14l-.81,1.44-15-8.45.81-1.44,15,8.45ZM368.91,87.94l3.93,2.21c-.13,1.36.07,2.49.61,3.4.54.91,1.17,1.58,1.91,1.99l.38.22-.27.48-10.78-6.07.27-.48.43.24c.61.34,1.3.38,2.07.13.78-.25,1.26-.96,1.45-2.12ZM377.3,52.2l-4.92,41.92-4.07-2.29,5.47-35.61,3.52-4.01Z"/>
  <path class="st1" d="M403.12,69.7l-15.6,18.5c-1.7,2.02-2.83,4.11-3.39,6.28-.56,2.17-.52,4.25.1,6.24.62,1.99,1.82,3.73,3.59,5.22,1.88,1.58,3.86,2.56,5.95,2.93,2.09.37,4.13.16,6.13-.62,2-.78,3.82-2.14,5.45-4.08l16.06-19.05,1.98,1.67-16.06,19.05c-1.84,2.19-3.93,3.7-6.25,4.55-2.32.85-4.73,1.01-7.22.5-2.49-.52-4.87-1.73-7.14-3.65-2.33-1.96-3.98-4.14-4.97-6.52s-1.27-4.81-.85-7.27c.42-2.45,1.55-4.78,3.39-6.96l16.09-19.09,2.73,2.31ZM400.52,67.5l-2.13,2.52-.13-.11c.52-.62.73-1.3.62-2.06s-.46-1.4-1.08-1.92l-.67-.57.35-.42,3.03,2.55ZM406.02,72.14l-.35.42-.67-.57c-.62-.52-1.31-.77-2.07-.74-.77.03-1.41.35-1.93.96l-.08-.07,2.13-2.52,2.98,2.52ZM421.54,85.22l-2.13,2.52-.13-.11c.52-.62.73-1.3.62-2.06s-.47-1.4-1.08-1.92l-.67-.57.35-.42,3.03,2.55ZM426.29,89.23l-.35.42-.67-.57c-.62-.52-1.31-.77-2.07-.74-.77.03-1.41.35-1.93.97l-.08-.07,2.13-2.52,2.98,2.52Z"/>
  <path class="st1" d="M413.34,127.62l-3.16,2.48-2.72-3.46.43-.34.44.56c.59.75,1.36,1.18,2.31,1.3.95.12,1.81-.11,2.59-.67l.1.13ZM442.43,109.09l-30.14,23.69-2.21-2.81,30.14-23.69,2.21,2.81ZM415.35,130.17l.1.13c-.73.62-1.15,1.4-1.26,2.35-.11.95.12,1.8.71,2.55l.44.56-.43.34-2.72-3.46,3.16-2.48ZM432.84,98.93l-.13.1c-.59-.7-1.33-1.1-2.2-1.21-.87-.1-1.67.13-2.39.69l-.73.58-.38-.4,3.5-2.75,2.34,2.98ZM451.34,120.07l-1.3,1.02-19.68-25.04,1.3-1.02,19.68,25.04ZM432.44,94.42c.11.38.34.91.69,1.59.35.68.76,1.42,1.24,2.2.48.79.96,1.49,1.43,2.09l-4.62-4.9,1.25-.99ZM450.17,120.99l-3.5,2.75-.3-.47.74-.58c.72-.57,1.13-1.3,1.22-2.18.09-.89-.12-1.69-.63-2.41l.13-.1,2.35,2.98ZM452.12,119.46l-1.25.98-3.67-5.65c.5.63,1.07,1.27,1.71,1.91.64.64,1.26,1.22,1.85,1.73.59.51,1.05.86,1.37,1.02Z"/>
  <path class="st1" d="M426.77,146.76l-3.57,1.83-2.01-3.92.49-.25.33.64c.43.85,1.11,1.42,2.02,1.71.91.3,1.8.24,2.67-.16l.07.15ZM459.02,134.07l-34.26,17.55-1.63-3.18,34.27-17.55,1.63,3.18ZM433.04,164.06l-1.52.78-6.84-13.36,1.52-.78,6.84,13.37ZM440.98,163.76l-9.38,1.22-4.16-8.13,2.42.99c.89,1.73,1.88,3,2.97,3.82s2.31,1.32,3.64,1.5c1.33.18,2.75.22,4.26.11l.25.49ZM448.07,153.71l-1.47.75-5.77-11.26,1.47-.75,5.77,11.26ZM446.7,154.41l-3.23,1.65-.25-.49.73-.38c.65-.33,1.1-.85,1.34-1.55.24-.7.19-1.38-.14-2.03l.1-.05,1.46,2.84ZM451.2,152.1l-3.23,1.65-1.45-2.84.1-.05c.36.64.9,1.06,1.61,1.28.7.21,1.38.15,2.04-.18l.69-.35.25.49ZM453.89,132.87l-.08-.15c.85-.43,1.42-1.12,1.7-2.05.29-.93.21-1.82-.22-2.67l-.3-.59.47-.3,2.01,3.92-3.57,1.83ZM465.79,147.29l-1.52.78-6.84-13.36,1.52-.78,6.84,13.36ZM464.42,147.99l-3.92,2.01-.25-.49.88-.45c.78-.4,1.32-1.03,1.6-1.87.28-.85.24-1.69-.15-2.52l.1-.05,1.73,3.38ZM466.67,146.84l-1.42.73-2.52-6.25c.37.72.81,1.45,1.31,2.2.51.75,1,1.43,1.48,2.05.48.62.86,1.04,1.14,1.27ZM464.75,136.7c1.1.3,2.2.61,3.28.92,1.08.31,2.16.63,3.22.98,1.06.34,2.09.69,3.1,1.04-.21.56-.43,1.13-.67,1.7-.24.58-.54,1.12-.89,1.63-.94-.63-1.88-1.26-2.82-1.89-.94-.63-1.85-1.27-2.74-1.9-.89-.64-1.76-1.29-2.64-1.95l.17-.52Z"/>
  <path class="st0" d="M54.85,407.52c48.45,46.96,122.42,72.01,196.95,71.71,73.58-.3,146.96-25.33,193.94-71.71l-51.66-59.8c-35.87,29.01-80.85,47.2-129.99,49.6-4.62.27-9.21.34-13.84.25,0,.25-12.61-.19-13.76-.25-49.14-2.39-94.12-20.59-129.99-49.6l-51.66,59.8h0ZM491.09,398.05c-6.01,13.53-48.13,49.78-61.11,53.62l20.82-46.03-40.27-45.27,18.43-17.53,17.8,40.85,44.34,14.36h0ZM9.5,398.05c6.02,13.53,48.13,49.78,61.12,53.62l-20.81-46.03,40.27-45.27-18.44-17.53-17.06,40.12-45.08,15.09h0Z"/>
  <path class="st4" d="M133.21,435.23c-.8.91-1.21,1.79-1.24,2.63-.03.85.18,1.59.62,2.24.45.64.99,1.09,1.63,1.34l.71.29-.32.79-15.96-6.4.32-.79.72.29c1.22.49,2.63.61,4.23.36,1.6-.25,3.19-1.1,4.76-2.56l4.53,1.82ZM170.71,391.18l-1.52,5.85-40.35,42.9-4.76-1.91,39.7-40.12c1.11-1.09,2.06-2.03,2.84-2.83.78-.79,1.49-1.58,2.15-2.36.65-.78,1.06-1.39,1.23-1.81l.72.29ZM167.85,430.69l-.95,2.38-24.85-9.97.95-2.38,24.85,9.97ZM165.06,448l6.51,2.61c.07,2.12.61,3.83,1.63,5.12s2.13,2.19,3.35,2.68l.64.25-.32.79-17.86-7.17.32-.79.72.29c1.01.4,2.08.33,3.23-.23,1.14-.56,1.74-1.74,1.8-3.57ZM170.71,391.18l.95,65.65-6.75-2.71,1.18-56.03,4.62-6.91Z"/>
  <path class="st4" d="M196.27,456.22l-.83,6.19-6.79-.91.11-.85,1.1.15c1.47.2,2.8-.16,3.98-1.07,1.18-.9,1.9-2.09,2.16-3.55l.25.03ZM208.63,403.75l-7.93,59.36-5.51-.74,7.93-59.36,5.51.74ZM202.55,409.24l-.25-.03c.14-1.48-.24-2.81-1.15-4-.91-1.18-2.09-1.88-3.57-2.07l-1.1-.15.11-.85,6.78.9-.83,6.19ZM201.27,456.89l.25.04c-.2,1.47.17,2.8,1.11,3.99.93,1.19,2.14,1.88,3.61,2.08l1.02.14-.11.85-6.7-.89.83-6.19ZM219.49,405.2c2.55.34,4.8,1.02,6.76,2.03,1.96,1.01,3.56,2.3,4.79,3.88,1.23,1.58,2.09,3.39,2.6,5.44s.59,4.32.26,6.81c-.36,2.71-1.35,5.23-2.95,7.55-1.6,2.32-3.6,4.11-5.99,5.37-2.38,1.27-4.93,1.72-7.64,1.35.91.53,1.84,1.47,2.81,2.84.97,1.37,1.8,2.67,2.5,3.92,1.23,2.41,2.32,4.48,3.27,6.22.95,1.74,1.91,3.45,2.9,5.13.98,1.69,1.84,3.04,2.56,4.05.96,1.4,1.95,2.65,2.95,3.76,1,1.11,2.13,2.04,3.38,2.78,1.25.74,2.7,1.22,4.34,1.44l-.11.85-4.66-.62c-2.6-.35-4.8-1.04-6.59-2.09-1.79-1.04-3.25-2.23-4.4-3.57s-2.1-2.6-2.86-3.79c-.14-.25-.52-.96-1.14-2.14-.62-1.18-1.35-2.58-2.2-4.22-.84-1.64-1.68-3.26-2.5-4.87-.82-1.6-1.53-2.98-2.12-4.12-.6-1.14-.94-1.81-1.03-1.99-.89-1.55-1.9-3.02-3.04-4.38-1.14-1.36-2.47-2.14-4-2.35l.11-.85c1.75.29,3.24.49,4.49.6,1.48.14,3.12.13,4.93-.03,1.8-.16,3.55-.76,5.25-1.8,1.69-1.04,3.1-2.78,4.24-5.22.25-.6.5-1.36.73-2.28.24-.92.39-1.83.45-2.74.46-3.85-.11-7.05-1.69-9.59s-3.95-4.11-7.1-4.7c-1.57-.33-3.19-.59-4.86-.78-1.67-.19-3.64-.44-5.9-.74,0-.06-.03-.31-.11-.75-.09-.44-.21-1.11-.38-1.99l11.96,1.59Z"/>
  <path class="st4" d="M253.78,413.47h-.26c-.1-1.47-.69-2.72-1.78-3.75-1.09-1.02-2.37-1.52-3.85-1.47l-1.11.03-.02-.85,6.84-.2.18,6.24ZM255.14,460.85l.18,6.24-6.84.2-.02-.86,1.11-.03c1.48-.04,2.74-.6,3.76-1.69,1.03-1.09,1.55-2.37,1.56-3.86h.26ZM258.9,407.07l1.72,59.86-5.56.16-1.72-59.86,5.56-.16ZM258.83,413.32l-.18-6.25,6.84-.19.03.85c-.06,0-.43.01-1.11.03-1.48.04-2.74.61-3.76,1.69-1.03,1.09-1.55,2.37-1.56,3.85h-.26ZM260.18,460.7h.26c.1,1.47.69,2.73,1.78,3.75,1.09,1.03,2.37,1.52,3.85,1.47.68-.02,1.05-.03,1.11-.03l.02.86-6.84.2-.18-6.25Z"/>
  <path class="st4" d="M288.71,458.73c-.16,1.2,0,2.16.44,2.88.45.72,1.03,1.22,1.76,1.51.73.28,1.43.35,2.1.21l.76-.16.18.84-16.82,3.58-.18-.84.75-.16c1.28-.27,2.52-.96,3.72-2.06,1.19-1.1,2.03-2.69,2.52-4.78l4.77-1.01ZM295.29,401.27l2,5.7-9.6,58.11-5.02,1.07,10.6-55.44c.32-1.52.58-2.83.78-3.93.2-1.09.36-2.15.46-3.16.1-1.01.11-1.74.01-2.19l.76-.16ZM314.94,435.66l.53,2.51-26.19,5.57-.53-2.51,26.19-5.57ZM295.29,401.27l37.37,53.98-7.11,1.51-30.24-47.19-.02-8.3ZM322.27,451.6l6.86-1.46c1.24,1.72,2.64,2.83,4.21,3.34,1.57.51,2.99.63,4.28.36l.67-.14.18.84-18.83,4-.18-.84.76-.16c1.06-.22,1.91-.89,2.55-1.98.64-1.1.47-2.42-.49-3.96Z"/>
  <path class="st4" d="M337.89,387.16c.83-.38,1.75-.73,2.76-1.06,1.01-.33,2.01-.61,3-.84.99-.23,1.9-.42,2.74-.59.84-.16,1.51-.23,2.02-.21l3.93,8.65-.7.32c-1.13-2.49-2.88-4.06-5.24-4.71-2.36-.65-4.76-.42-7.2.69-2.86,1.3-4.76,3.24-5.71,5.83s-.89,5.09.2,7.47c.45.99,1.19,2.04,2.24,3.17,1.04,1.13,2.42,1.99,4.13,2.59l21.78,7.21c2.22.75,3.97,1.84,5.24,3.26,1.27,1.43,2.26,2.92,2.97,4.48,1.96,4.31,2.24,8.41.84,12.3s-4.33,6.85-8.8,8.88c-1.25.57-2.77,1.1-4.58,1.61-1.81.51-3.65.8-5.53.87-1.88.07-3.57-.18-5.08-.75-.53-.76-1.08-1.76-1.65-3.01-.57-1.25-1.06-2.61-1.47-4.08-.42-1.47-.7-2.86-.86-4.17l.7-.32c.94,2.77,2.33,4.92,4.16,6.47,1.83,1.55,3.87,2.43,6.12,2.62,2.25.2,4.5-.27,6.73-1.41,2.78-1.45,4.79-3.57,6-6.34s1.12-5.72-.3-8.84c-.68-1.51-1.56-2.75-2.64-3.74-1.07-.98-2.3-1.69-3.69-2.13l-21.25-7.08c-2.22-.75-4.03-1.85-5.45-3.31-1.41-1.46-2.46-2.94-3.15-4.45-.99-2.18-1.43-4.52-1.31-7.02.12-2.49.92-4.85,2.39-7.05,1.47-2.2,3.69-3.98,6.65-5.32ZM347.98,383.52l.74,1.64-5.92,2.69-.74-1.64,5.92-2.69Z"/>
  <path class="st0" d="M330.54,163.11c2.85.11,4.58-1.08,6.1-4.5-1.37,5.33-2.63,6.39-5.72,7.63,1.32,5.76,10.1,13.1,12.92,17.08,4.18,4.06.87,5.52-2.13,8.03-2.45,2.05-3.66,3.41-2.27,6.9.47,1.2,1.48,1.95,1.85,3.57.23,1.32-2.36,2.78-2.28,3.28.28,1.65,1.64,2.64.47,4.67-1.91,2.5-4.2,1.87-4.27,6.21.07,3.22,3.96,11.14-6.38,13.68-8.46,2.09-14.81-.19-22.84-.89-.48-.06-3.64.22-6.63,2.63-4.21,3.29-10.06,18.23-13.6,29.14-.07.22-.15.46-.21.69-12.65-4.73-29.6-8.66-27.73-24.5,2.33-19.68,29.96-27.11,41.4-48.01,8.48-15.48,2.83-33.16,15.42-46.24-6.76,3.39-11.94,18.03-12.79,26.04-3.59,33.9-50.72,45.45-54.81,64.72-5.86,27.59,49.03,31.04,68.88,36.87,14.67,4.3,26.33,12.17,20.32,35.36,2.8-11.92-3.94-17.09-14.09-18.99,6.77,6.82-4.31,32.12,11.09,35.02,3.28.61,8.34-.96,9.39-3.62l-1.43,2.64c-1.03.46-1.95,2.29-6.32,3.34-11.66,2.78-20.84-8.4-21.43-14.64-1.84,10,2.95,15.41,10.02,20.8,7.87,5.99,3.63,13.19,6.47,18.28.41.75.33.47.57,1.16-7.1-3.63-1.08-6.36-12.3-10.27,12.09,12.49-10.03,28.57-15.26,28.15,2.32-1.62,4.44-3.8,5.55-6.18,2.39-5.11-.83-10.6-5.73-12.48-7.14-2.76-31.47-1.09-27.22-18.71-4.37,11.62,3.85,14.6,8.33,16.14,18.1,6.23,14.25,24.2,3.35,27.34,11.88-19.74-29.57-20.63-41.61-18.13-12.72,2.65-27.13,11.23-31.52,1-1.22-2.86-2.2-5.22-3.12-7.26-9.03-14.09-52.83-11.65-53.22-56.8-1.7,1.02-21.89,7.59-28.43-8.33,8.19,10.95,20.81,2.3,23.42-6.62,1.12-3.81-1.06-7.7-1.66-12.17-2.82-21.08,8.38-29.19,14.96-42.6-1.97.11-17.86,2.26-16.56-14.96,4.03,12.23,16.45,10.68,20.5,6.63,4.16-4.16,3.18-11.6-.78-15.58-1.41-3.63-2.75-4.18-3.68-8.74-.84-4.14.06-6.26.11-10.32l2.17-6.96c.74-1.62,1.14-3.21,2.31-4.08l.55-1.84c2.18-3,3.53-5.65,6.21-8.17,1.33-1.25,2.35-1.65,3.86-2.6,18.54-11.7,26.21-25.35,37.03-37.79,4.45-5.11,9.9-9.22,15.01-11.53,5.95-2.67,9.88-4.38,17.33-5.84,30.59-6,54.65-.97,73.3,24.57,10.3-15.57-14.61-3.81-9.59-15.3,1.79,12.84,26.42-4.21,10.63,19.53.82.47,6.07,28.83,6.06,33.6h0Z"/>
  <path class="st2" d="M404.06,386.03c2.65,0,4.8,2.15,4.8,4.81s-2.15,4.8-4.8,4.8-4.8-2.15-4.8-4.8,2.15-4.81,4.8-4.81h0Z"/>
  <path class="st2" d="M92.59,386.03c2.65,0,4.8,2.15,4.8,4.81s-2.15,4.8-4.8,4.8-4.8-2.15-4.8-4.8,2.15-4.81,4.8-4.81h0Z"/>
</svg>