<svg xmlns="http://www.w3.org/2000/svg" xmlns:xlink="http://www.w3.org/1999/xlink" id="Layer_1" x="0px" y="0px" width="500px" height="500px" viewBox="0 0 500 500" xml:space="preserve"><path fill="#FFFFFF" d="M31.777,138.208c0.261-0.539,0.577-1.104,0.948-1.697c0.371-0.593,0.759-1.155,1.164-1.689  c0.406-0.533,0.787-1.016,1.142-1.448c0.356-0.432,0.666-0.75,0.932-0.956l5.624,2.729l-0.221,0.457  c-1.622-0.787-3.166-0.849-4.635-0.185c-1.469,0.663-2.59,1.788-3.36,3.375c-0.903,1.857-1.049,3.643-0.441,5.356  c0.608,1.714,1.689,2.948,3.241,3.701c0.643,0.312,1.463,0.533,2.464,0.664c1,0.131,2.06-0.011,3.18-0.428l14.062-5.503  c1.439-0.554,2.778-0.738,4.023-0.551c1.245,0.188,2.373,0.527,3.386,1.019c2.804,1.361,4.669,3.32,5.596,5.877  c0.929,2.558,0.687,5.289-0.722,8.193c-0.393,0.809-0.941,1.723-1.642,2.738c-0.703,1.016-1.514,1.937-2.436,2.76  c-0.922,0.826-1.885,1.413-2.888,1.759c-0.588-0.16-1.289-0.438-2.099-0.831c-0.811-0.394-1.631-0.875-2.461-1.445  c-0.829-0.568-1.558-1.153-2.186-1.75l0.221-0.455c1.639,1.005,3.249,1.515,4.828,1.53c1.578,0.015,2.978-0.4,4.203-1.246  c1.223-0.845,2.163-2.027,2.816-3.545c0.8-1.906,0.924-3.817,0.373-5.734c-0.55-1.915-1.839-3.366-3.866-4.348  c-0.979-0.477-1.947-0.736-2.905-0.785c-0.956-0.047-1.879,0.111-2.764,0.473l-13.737,5.347c-1.436,0.554-2.819,0.759-4.147,0.616  c-1.329-0.144-2.482-0.454-3.461-0.929c-1.419-0.689-2.622-1.689-3.612-3.004c-0.988-1.315-1.573-2.839-1.753-4.576  C30.465,141.963,30.842,140.134,31.777,138.208z M35.357,132.123l1.063,0.516l-1.869,3.85l-1.063-0.518L35.357,132.123z"></path><path fill="#FFFFFF" d="M51.027,106.965l3.453,1.964l20.345,32.99l-2.031,2.699l-18.69-32.098c-0.502-0.893-0.938-1.656-1.309-2.286  c-0.371-0.632-0.748-1.222-1.135-1.77c-0.386-0.548-0.698-0.913-0.939-1.094L51.027,106.965z M51.027,106.965L92.9,117.612  l-2.876,3.824l-35.4-10.357L51.027,106.965z M75.642,115.548l1.35,1.014l-10.595,14.083l-1.35-1.016L75.642,115.548z M72.59,138.334  c0.441,0.663,0.929,1.075,1.462,1.242c0.533,0.166,1.042,0.16,1.526-0.015c0.484-0.176,0.863-0.443,1.133-0.803l0.304-0.405  l0.451,0.338l-6.804,9.045l-0.449-0.339l0.304-0.405c0.519-0.69,0.838-1.566,0.956-2.629c0.118-1.061-0.153-2.216-0.811-3.464  L72.59,138.334z M86.163,120.292l2.775-3.688c1.359,0.318,2.537,0.264,3.536-0.159c0.999-0.422,1.758-0.977,2.277-1.668l0.272-0.36  l0.449,0.339l-7.615,10.123l-0.451-0.339l0.305-0.405c0.428-0.57,0.564-1.266,0.408-2.088  C87.964,121.224,87.31,120.64,86.163,120.292z"></path><path fill="#FFFFFF" d="M75.121,86.775l-0.124,0.113c-0.684-0.696-1.517-1.069-2.499-1.116c-0.981-0.047-1.833,0.257-2.554,0.913  l-0.542,0.492l-0.379-0.417l3.334-3.029L75.121,86.775z M74.942,81.385l26.497,29.176l-2.709,2.461L72.233,83.846L74.942,81.385z   M77.58,84.541l-2.763-3.042l3.334-3.027l0.379,0.415c-0.027,0.026-0.208,0.189-0.541,0.493c-0.724,0.655-1.107,1.474-1.155,2.454  c-0.047,0.982,0.243,1.847,0.871,2.593L77.58,84.541z M96.091,109.865l2.764,3.042l-3.336,3.029l-0.377-0.417l0.541-0.492  c0.722-0.657,1.107-1.474,1.155-2.456c0.047-0.981-0.243-1.845-0.871-2.592L96.091,109.865z M111.52,99.049l1.173,1.292  l-11.379,10.334l-1.175-1.292L111.52,99.049z M109.104,91.279l3.714,8.949l-6.919,6.283l0.327-2.654  c1.472-1.338,2.465-2.658,2.98-3.962c0.515-1.304,0.686-2.638,0.512-4.002c-0.173-1.364-0.516-2.775-1.031-4.235L109.104,91.279z"></path><path fill="#FFFFFF" d="M111.72,52.296c3.414-2.115,6.862-3.247,10.346-3.397c3.484-0.15,6.763,0.634,9.836,2.349  c3.073,1.718,5.688,4.315,7.841,7.792c2.157,3.478,3.317,6.975,3.487,10.491s-0.588,6.8-2.273,9.853  c-1.685,3.055-4.234,5.637-7.647,7.753c-3.383,2.097-6.815,3.22-10.3,3.369c-3.484,0.15-6.761-0.634-9.834-2.351  c-3.073-1.717-5.688-4.313-7.843-7.792c-2.155-3.476-3.317-6.974-3.487-10.49s0.588-6.8,2.273-9.854  C105.805,56.966,108.337,54.393,111.72,52.296z M132.42,85.701c2.713-1.68,4.666-3.818,5.862-6.413  c1.196-2.596,1.617-5.44,1.268-8.536c-0.35-3.094-1.514-6.238-3.49-9.428c-1.978-3.191-4.275-5.631-6.89-7.322  c-2.616-1.691-5.352-2.58-8.208-2.664c-2.858-0.084-5.642,0.713-8.353,2.393c-2.68,1.662-4.619,3.789-5.813,6.386  c-1.196,2.595-1.619,5.44-1.269,8.535c0.351,3.096,1.515,6.239,3.491,9.428c1.978,3.191,4.273,5.631,6.89,7.323  c2.615,1.691,5.35,2.578,8.208,2.662C126.972,88.151,129.739,87.363,132.42,85.701z"></path><path fill="#FFFFFF" d="M140.765,36.335l3.415,2.102l12.884,34.795l-2.43,0.895l-11.488-31.168c-0.663-1.796-1.633-3.939-2.91-6.428  L140.765,36.335z M140.765,36.335l42.765,21.441l2.598,5.584l-42.747-21.389L140.765,36.335z M153.41,70.318l1.382,3.751  l-4.383,1.616l-0.195-0.528c0.634-0.234,0.968-0.356,1.003-0.37c0.88-0.324,1.521-0.921,1.921-1.788s0.438-1.741,0.113-2.621  L153.41,70.318z M155.682,69.481c0.324,0.881,0.919,1.521,1.787,1.921c0.868,0.4,1.743,0.438,2.622,0.113  c0.035-0.012,0.37-0.136,1.003-0.37l0.195,0.528l-4.385,1.616l-1.382-3.751L155.682,69.481z M165.569,28.094l4.385-1.617  l1.382,3.751l-0.105,0.04c-0.373-0.903-0.981-1.549-1.824-1.938c-0.845-0.388-1.724-0.415-2.639-0.078  c-0.634,0.234-0.968,0.357-1.003,0.37L165.569,28.094z M172.226,25.64l11.411,30.959c0.415,1.127,0.849,2.196,1.303,3.209  c0.452,1.014,1.008,2.14,1.665,3.377l-0.477,0.176l-3.409-1.924l-12.871-34.919L172.226,25.64z M176.452,24.082l0.194,0.528  l-0.95,0.351c-0.881,0.324-1.524,0.912-1.932,1.761c-0.406,0.851-0.458,1.74-0.156,2.668l-0.159,0.058l-1.382-3.751L176.452,24.082z  "></path><path fill="#FFFFFF" d="M205.762,22.276l-0.168,0.018c-0.105-0.97-0.55-1.763-1.333-2.377c-0.784-0.612-1.662-0.868-2.632-0.762  l-0.672,0.073l-0.116-0.554l4.478-0.486L205.762,22.276z M209.12,53.287l0.443,4.086l-4.478,0.486l-0.061-0.561l0.729-0.078  c0.97-0.105,1.763-0.541,2.378-1.306s0.889-1.634,0.822-2.609L209.12,53.287z M208.789,17.814l4.244,39.183l-3.638,0.394  l-4.244-39.183L208.789,17.814z M219.816,16.619c3.992-0.432,7.58,0,10.76,1.298c3.178,1.298,5.778,3.33,7.795,6.094  s3.238,6.105,3.663,10.022c0.425,3.919-0.053,7.435-1.434,10.548c-1.381,3.114-3.485,5.654-6.311,7.621  c-2.826,1.969-6.236,3.168-10.228,3.6L212.082,57.1l-0.238-1.674c1.605-0.174,3.013-0.327,4.226-0.458s2.416-0.261,3.611-0.391  c1.194-0.128,2.593-0.281,4.199-0.454c3.209-0.348,5.917-1.396,8.125-3.146c2.208-1.749,3.829-4.04,4.863-6.87  s1.356-6.036,0.968-9.619c-0.388-3.582-1.39-6.645-3.006-9.188s-3.699-4.432-6.248-5.666c-2.551-1.233-5.411-1.679-8.584-1.335  c-1.679,0.182-3.143,0.341-4.394,0.475c-1.251,0.136-2.5,0.272-3.75,0.406c-1.251,0.136-2.734,0.296-4.451,0.483l-0.182-1.679  L219.816,16.619z"></path><path fill="#FFFFFF" d="M251.025,50.141l-0.156,4.107l-4.501-0.171l0.021-0.562l0.732,0.027c0.974,0.037,1.822-0.278,2.543-0.945  s1.118-1.488,1.193-2.462L251.025,50.141z M252.21,18.971l-0.17-0.006c0.038-0.976-0.287-1.824-0.973-2.545  c-0.687-0.721-1.518-1.1-2.493-1.138l-0.675-0.024l-0.035-0.565l4.501,0.171L252.21,18.971z M255.855,14.997l-1.497,39.383  l-3.656-0.139l1.495-39.383L255.855,14.997z M269.616,53.214l-0.067,1.744l-15.359-0.583l0.066-1.744L269.616,53.214z   M267.899,34.611l-0.064,1.688l-12.939-0.492l0.064-1.688L267.899,34.611z M271.045,15.573l-0.066,1.744l-15.36-0.583l0.066-1.744  L271.045,15.573z M273.327,45.973l-3.609,8.991l-9.34-0.356l2.091-1.666c1.989,0.075,3.621-0.173,4.903-0.744  c1.28-0.571,2.335-1.404,3.166-2.5c0.829-1.095,1.572-2.343,2.227-3.747L273.327,45.973z M271.083,14.56l-0.061,1.633l-6.841-0.88  c0.825,0.031,1.698,0.008,2.622-0.07c0.923-0.078,1.781-0.176,2.575-0.296C270.172,14.828,270.74,14.698,271.083,14.56z   M267.839,36.186l-0.141,3.714l-0.564-0.021l0.032-0.845c0.029-0.75-0.209-1.407-0.713-1.97c-0.506-0.564-1.132-0.86-1.882-0.889  l0.003-0.113L267.839,36.186z M268.036,31.01l-0.142,3.714l-3.262-0.125l0.005-0.111c0.75-0.009,1.399-0.275,1.946-0.8  c0.545-0.522,0.832-1.159,0.861-1.911l0.029-0.788L268.036,31.01z M270.986,17.149l-0.171,4.501l-0.564-0.021l0.04-1.013  c0.034-0.901-0.257-1.691-0.869-2.372c-0.612-0.68-1.387-1.057-2.323-1.13l0.005-0.113L270.986,17.149z"></path><path fill="#FFFFFF" d="M294.496,54.223l-0.906,4.008l-4.394-0.994l0.18-0.536c0.072,0.017,0.191,0.043,0.356,0.081  c0.165,0.037,0.266,0.06,0.302,0.069c0.952,0.215,1.851,0.063,2.702-0.457c0.848-0.521,1.381-1.255,1.595-2.209L294.496,54.223z   M305.694,20.563l-8.7,38.44l-3.569-0.808l8.701-38.44L305.694,20.563z M308.825,21.271c2.563,0.58,4.643,1.456,6.247,2.625  c1.601,1.171,2.703,2.546,3.308,4.127c0.605,1.579,0.699,3.285,0.284,5.115c-0.348,1.538-0.944,2.818-1.79,3.838  c-0.849,1.02-1.811,1.784-2.887,2.291c-1.078,0.507-2.163,0.79-3.253,0.851c1.876,0.733,3.406,1.752,4.591,3.059  s1.986,2.787,2.401,4.44c0.412,1.653,0.415,3.395,0,5.225c-0.464,2.051-1.365,3.742-2.706,5.074s-3.07,2.212-5.187,2.636  c-2.117,0.425-4.53,0.331-7.24-0.283l-6.094-1.379c0.183-0.651,0.351-1.306,0.501-1.964l5.822,1.317  c1.903,0.431,3.589,0.458,5.062,0.078c1.472-0.379,2.703-1.149,3.699-2.309c0.993-1.159,1.698-2.654,2.111-4.486  c0.464-2.05,0.449-3.805-0.049-5.265c-0.498-1.459-1.295-2.659-2.389-3.6c-1.097-0.941-2.34-1.694-3.733-2.259  s-2.746-0.997-4.063-1.295l0.11-0.495c0.843,0.191,1.796,0.312,2.862,0.359c1.066,0.05,2.138-0.093,3.217-0.426  c1.075-0.334,2.047-0.97,2.914-1.909c0.864-0.939,1.497-2.288,1.897-4.044c0.373-1.648,0.388-3.125,0.049-4.434  c-0.339-1.307-1.036-2.399-2.086-3.273c-1.054-0.874-2.459-1.509-4.215-1.906l-5.052-1.144c0.009-0.035-0.003-0.203-0.031-0.498  c-0.031-0.295-0.07-0.756-0.122-1.384L308.825,21.271z M301.384,23.801l-0.165-0.037c0.214-0.952,0.049-1.845-0.492-2.68  c-0.541-0.834-1.289-1.359-2.242-1.575c-0.037-0.009-0.134-0.032-0.299-0.069c-0.165-0.038-0.284-0.064-0.357-0.081l0.067-0.562  l4.396,0.994L301.384,23.801z"></path><path fill="#FFFFFF" d="M323.878,61.768l-1.43,3.853l-4.225-1.567l0.195-0.527l0.687,0.254c0.913,0.339,1.818,0.305,2.713-0.105  c0.892-0.409,1.524-1.065,1.9-1.967L323.878,61.768z M339.426,29.883L325.72,66.834l-3.43-1.272l13.703-36.952L339.426,29.883z   M340.581,70.485l-0.608,1.637l-14.412-5.346l0.608-1.636L340.581,70.485z M346.367,64.763l-6.235,7.417l-8.764-3.25l2.508-0.932  c1.866,0.692,3.495,0.965,4.89,0.823c1.393-0.144,2.658-0.606,3.788-1.388s2.224-1.737,3.284-2.865L346.367,64.763z M334.722,32.522  l-0.156-0.058c0.339-0.915,0.293-1.822-0.134-2.722c-0.428-0.898-1.097-1.518-2.013-1.857l-0.632-0.235l0.144-0.547l4.222,1.566  L334.722,32.522z M344.754,52.276l-0.59,1.582l-12.142-4.503l0.59-1.584L344.754,52.276z M353.679,35.169l-0.608,1.637L338.66,31.46  l0.608-1.636L353.679,35.169z M344.204,53.753l-1.292,3.484l-0.528-0.195l0.293-0.791c0.263-0.704,0.241-1.402-0.061-2.095  c-0.305-0.693-0.809-1.17-1.512-1.431l0.04-0.105L344.204,53.753z M346.006,48.896l-1.292,3.485l-3.064-1.136l0.04-0.105  c0.718,0.226,1.417,0.176,2.099-0.153c0.681-0.327,1.155-0.843,1.414-1.547l0.275-0.739L346.006,48.896z M354.031,34.219  l-0.568,1.53l-6.225-2.969c0.776,0.287,1.613,0.538,2.514,0.753c0.901,0.214,1.747,0.388,2.538,0.521  C353.081,34.188,353.661,34.241,354.031,34.219z M353.129,36.647l-1.564,4.223l-0.528-0.195l0.351-0.95  c0.315-0.845,0.284-1.686-0.086-2.525c-0.37-0.837-0.987-1.437-1.854-1.798l0.04-0.107L353.129,36.647z"></path><path fill="#FFFFFF" d="M352.051,73.031c-0.599,0.525-0.944,1.063-1.039,1.613s-0.021,1.052,0.217,1.511  c0.235,0.457,0.553,0.796,0.944,1.017l0.443,0.247l-0.278,0.492l-9.86-5.553l0.278-0.49l0.44,0.249  c0.751,0.423,1.662,0.623,2.731,0.6s2.178-0.443,3.327-1.26L352.051,73.031z M380.307,47.523l-1.494,3.682l-30.021,24.513  l-2.945-1.657l29.358-22.757c0.819-0.614,1.518-1.149,2.095-1.599c0.574-0.451,1.109-0.903,1.604-1.358  c0.492-0.454,0.813-0.813,0.959-1.074L380.307,47.523z M375.04,73.054l-0.828,1.471l-15.356-8.646l0.828-1.472L375.04,73.054z   M371.723,84.108l4.023,2.265c-0.134,1.388,0.07,2.551,0.623,3.484c0.55,0.935,1.2,1.614,1.955,2.037l0.391,0.221l-0.275,0.49  l-11.039-6.215l0.275-0.492l0.443,0.249c0.62,0.35,1.329,0.394,2.123,0.13C371.036,86.016,371.531,85.292,371.723,84.108z   M380.307,47.523l-5.037,42.912l-4.17-2.349l5.599-36.456L380.307,47.523z"></path><path fill="#FFFFFF" d="M406.744,65.435l-15.967,18.942c-1.741,2.066-2.899,4.209-3.467,6.428c-0.571,2.219-0.535,4.348,0.104,6.384  c0.638,2.037,1.863,3.817,3.672,5.341c1.924,1.62,3.953,2.621,6.091,2.998c2.135,0.377,4.228,0.165,6.277-0.635  c2.05-0.802,3.91-2.192,5.578-4.173l16.437-19.501l2.025,1.706l-16.437,19.501c-1.888,2.239-4.02,3.792-6.396,4.661  c-2.377,0.868-4.842,1.037-7.389,0.51c-2.548-0.53-4.985-1.773-7.31-3.733c-2.383-2.008-4.078-4.235-5.086-6.679  s-1.298-4.924-0.874-7.438c0.425-2.512,1.582-4.889,3.47-7.128l16.474-19.544L406.744,65.435z M404.075,63.186l-2.178,2.583  l-0.128-0.108c0.532-0.631,0.745-1.335,0.638-2.112s-0.473-1.433-1.106-1.964l-0.687-0.58l0.36-0.431L404.075,63.186z   M409.714,67.939l-0.36,0.431l-0.69-0.58c-0.632-0.533-1.338-0.785-2.123-0.758c-0.785,0.026-1.442,0.356-1.973,0.987l-0.086-0.072  l2.178-2.584L409.714,67.939z M425.601,81.329l-2.178,2.583l-0.128-0.108c0.531-0.631,0.745-1.335,0.638-2.112  s-0.477-1.431-1.106-1.963l-0.69-0.582l0.363-0.429L425.601,81.329z M430.464,85.43l-0.36,0.431l-0.69-0.58  c-0.632-0.533-1.338-0.785-2.123-0.759c-0.785,0.027-1.442,0.357-1.973,0.988l-0.086-0.073l2.178-2.583L430.464,85.43z"></path><path fill="#FFFFFF" d="M417.204,124.729l-3.232,2.538l-2.783-3.54l0.443-0.348l0.452,0.576c0.602,0.767,1.39,1.21,2.367,1.326  c0.974,0.118,1.857-0.111,2.648-0.684L417.204,124.729z M446.983,105.763l-30.855,24.249l-2.26-2.877l30.855-24.249L446.983,105.763  z M419.256,127.341l0.104,0.133c-0.745,0.632-1.176,1.436-1.292,2.41c-0.116,0.976,0.125,1.847,0.73,2.615l0.452,0.574l-0.443,0.348  l-2.783-3.542L419.256,127.341z M437.163,95.363l-0.134,0.105c-0.608-0.715-1.362-1.126-2.257-1.234  c-0.895-0.107-1.714,0.13-2.45,0.709l-0.751,0.593l-0.394-0.409l3.586-2.818L437.163,95.363z M456.101,117.001l-1.329,1.043  l-20.142-25.63l1.326-1.045L456.101,117.001z M436.753,90.743c0.113,0.388,0.348,0.932,0.709,1.63  c0.354,0.696,0.782,1.449,1.271,2.257c0.492,0.806,0.981,1.521,1.469,2.14l-4.732-5.017L436.753,90.743z M454.907,117.94  l-3.586,2.818l-0.305-0.478l0.754-0.591c0.736-0.579,1.155-1.326,1.249-2.236c0.095-0.91-0.119-1.732-0.648-2.464l0.134-0.104  L454.907,117.94z M456.899,116.375l-1.283,1.008l-3.76-5.782c0.51,0.649,1.094,1.3,1.753,1.953c0.654,0.654,1.286,1.245,1.891,1.772  C456.104,115.852,456.572,116.202,456.899,116.375z"></path><path fill="#FFFFFF" d="M430.952,144.321l-3.656,1.872l-2.056-4.008l0.501-0.257l0.336,0.651c0.443,0.869,1.133,1.454,2.068,1.755  c0.935,0.302,1.845,0.247,2.731-0.165L430.952,144.321z M463.964,131.335l-35.076,17.967l-1.671-3.258l35.079-17.967  L463.964,131.335z M437.37,162.037l-1.555,0.794l-7.007-13.68l1.555-0.796L437.37,162.037z M445.502,161.73l-9.607,1.252  l-4.261-8.319l2.477,1.01c0.907,1.77,1.921,3.073,3.045,3.91s2.367,1.35,3.73,1.538c1.362,0.188,2.813,0.225,4.359,0.108  L445.502,161.73z M452.753,151.437l-1.503,0.77l-5.905-11.527l1.503-0.77L452.753,151.437z M451.351,152.155l-3.308,1.694  l-0.257-0.501l0.751-0.385c0.669-0.342,1.124-0.871,1.368-1.587c0.244-0.716,0.195-1.408-0.147-2.076l0.101-0.052L451.351,152.155z   M455.961,149.794l-3.308,1.694l-1.488-2.906l0.101-0.05c0.373,0.651,0.922,1.086,1.65,1.306c0.721,0.218,1.417,0.157,2.086-0.185  l0.703-0.359L455.961,149.794z M458.716,130.101l-0.079-0.15c0.871-0.444,1.451-1.144,1.744-2.094  c0.293-0.952,0.217-1.862-0.229-2.731l-0.309-0.602l0.477-0.305l2.053,4.008L458.716,130.101z M470.895,144.864l-1.555,0.796  l-7.007-13.68l1.555-0.796L470.895,144.864z M469.493,145.583l-4.011,2.053l-0.257-0.501l0.904-0.461  c0.8-0.411,1.347-1.051,1.643-1.917c0.29-0.868,0.241-1.727-0.153-2.58l0.101-0.052L469.493,145.583z M471.796,144.402l-1.451,0.744  l-2.581-6.395c0.376,0.733,0.825,1.485,1.344,2.253c0.519,0.767,1.026,1.468,1.518,2.1  C471.118,143.738,471.509,144.17,471.796,144.402z M469.832,134.021c1.127,0.309,2.248,0.622,3.36,0.938  c1.109,0.316,2.209,0.649,3.296,1c1.084,0.35,2.141,0.706,3.171,1.065c-0.214,0.573-0.443,1.153-0.69,1.744  c-0.244,0.59-0.55,1.145-0.913,1.671c-0.965-0.646-1.927-1.291-2.89-1.937c-0.965-0.645-1.897-1.295-2.801-1.949  c-0.907-0.655-1.805-1.321-2.703-2.001L469.832,134.021z"></path><path fill-rule="evenodd" clip-rule="evenodd" fill="#FFFFFF" d="M50.216,411.257c49.597,48.077,125.319,73.718,201.618,73.409  c75.321-0.308,150.439-25.931,198.536-73.409l-52.88-61.218c-36.72,29.697-82.765,48.321-133.069,50.771  c-4.732,0.272-9.43,0.345-14.167,0.254c0,0.257-12.907-0.19-14.087-0.254c-50.304-2.45-96.349-21.074-133.069-50.771L50.216,411.257  L50.216,411.257z M496.794,401.568c-6.156,13.85-49.274,50.957-62.562,54.886l21.309-47.118l-41.227-46.342l18.867-17.943  l18.223,41.818L496.794,401.568L496.794,401.568z M3.792,401.568c6.161,13.85,49.274,50.957,62.564,54.886L45.05,409.336  l41.229-46.342l-18.873-17.943l-17.469,41.067L3.792,401.568L3.792,401.568z"></path><path fill="#453623" d="M130.44,439.624c-0.816,0.932-1.24,1.83-1.271,2.697c-0.034,0.868,0.18,1.631,0.638,2.288  c0.461,0.654,1.017,1.115,1.668,1.375l0.73,0.293l-0.327,0.813l-16.336-6.555l0.324-0.813l0.733,0.293  c1.246,0.501,2.691,0.623,4.335,0.373c1.64-0.254,3.265-1.127,4.872-2.624L130.44,439.624z M168.822,394.531l-1.552,5.984  l-41.308,43.917l-4.875-1.955l40.636-41.073c1.139-1.115,2.108-2.08,2.905-2.893c0.8-0.813,1.53-1.619,2.199-2.419  c0.666-0.803,1.087-1.42,1.262-1.854L168.822,394.531z M165.898,434.978l-0.977,2.438l-25.442-10.209l0.977-2.438L165.898,434.978z   M163.036,452.701l6.665,2.676c0.073,2.169,0.629,3.916,1.668,5.245s2.181,2.245,3.43,2.746l0.651,0.26l-0.327,0.813l-18.288-7.337  l0.324-0.813l0.733,0.293c1.029,0.412,2.129,0.336,3.302-0.232C162.364,455.783,162.978,454.567,163.036,452.701z M168.822,394.531  l0.968,67.202l-6.907-2.771l1.213-57.36L168.822,394.531z"></path><path fill="#453623" d="M194.985,461.113l-0.846,6.338l-6.946-0.929l0.116-0.868l1.13,0.15c1.503,0.202,2.862-0.162,4.078-1.091  c1.213-0.926,1.949-2.138,2.209-3.635L194.985,461.113z M207.643,407.404l-8.122,60.766l-5.642-0.755l8.122-60.766L207.643,407.404z   M201.415,413.021l-0.26-0.034c0.144-1.512-0.25-2.874-1.176-4.09c-0.929-1.213-2.144-1.921-3.65-2.123l-1.127-0.15l0.116-0.868  l6.943,0.926L201.415,413.021z M200.107,461.798l0.26,0.037c-0.202,1.506,0.177,2.865,1.133,4.084  c0.956,1.219,2.187,1.927,3.693,2.126l1.042,0.141l-0.116,0.868l-6.858-0.916L200.107,461.798z M218.756,408.888  c2.606,0.348,4.912,1.042,6.925,2.074c2.01,1.036,3.644,2.358,4.903,3.971c1.255,1.613,2.144,3.467,2.658,5.569  s0.602,4.423,0.263,6.971c-0.373,2.777-1.381,5.355-3.021,7.725c-1.643,2.373-3.687,4.206-6.128,5.498  c-2.441,1.295-5.049,1.756-7.826,1.384c0.929,0.538,1.888,1.506,2.881,2.905c0.99,1.399,1.842,2.734,2.557,4.008  c1.262,2.465,2.377,4.588,3.345,6.369c0.968,1.778,1.958,3.531,2.966,5.254c1.005,1.726,1.882,3.11,2.624,4.151  c0.987,1.43,1.995,2.713,3.021,3.849c1.026,1.139,2.181,2.089,3.464,2.85c1.28,0.761,2.761,1.252,4.441,1.478l-0.116,0.868  l-4.774-0.638c-2.664-0.357-4.909-1.069-6.742-2.138c-1.83-1.069-3.33-2.285-4.503-3.65s-2.15-2.658-2.926-3.882  c-0.144-0.254-0.532-0.984-1.167-2.187c-0.635-1.204-1.384-2.645-2.251-4.322c-0.864-1.677-1.717-3.336-2.557-4.982  c-0.843-1.643-1.567-3.049-2.175-4.221c-0.611-1.17-0.962-1.851-1.054-2.04c-0.907-1.591-1.943-3.088-3.113-4.481  c-1.17-1.393-2.532-2.193-4.096-2.404l0.116-0.868c1.787,0.299,3.32,0.504,4.6,0.617c1.512,0.144,3.192,0.131,5.043-0.034  c1.845-0.165,3.638-0.779,5.37-1.845c1.732-1.063,3.177-2.844,4.338-5.34c0.257-0.614,0.507-1.39,0.751-2.331  c0.244-0.938,0.397-1.876,0.464-2.81c0.467-3.94-0.11-7.215-1.735-9.818s-4.047-4.209-7.264-4.814  c-1.607-0.333-3.265-0.599-4.976-0.8c-1.711-0.199-3.724-0.452-6.039-0.761c0.009-0.058-0.031-0.315-0.116-0.767  c-0.089-0.455-0.217-1.136-0.391-2.04L218.756,408.888z"></path><path fill="#453623" d="M253.863,417.35l-0.263,0.006c-0.104-1.515-0.709-2.795-1.821-3.846c-1.112-1.048-2.425-1.552-3.94-1.509  l-1.139,0.034l-0.024-0.874l7.004-0.202L253.863,417.35z M255.253,465.851l0.183,6.39l-7.004,0.202l-0.024-0.877l1.136-0.034  c1.518-0.043,2.801-0.617,3.849-1.729c1.051-1.112,1.582-2.425,1.598-3.947L255.253,465.851z M259.108,410.804l1.756,61.282  l-5.691,0.162l-1.756-61.282L259.108,410.804z M259.028,417.203l-0.183-6.393l7.001-0.199l0.027,0.874  c-0.061,0.003-0.44,0.012-1.139,0.034c-1.518,0.043-2.801,0.62-3.849,1.732c-1.051,1.112-1.582,2.425-1.595,3.944L259.028,417.203z   M260.418,465.701l0.263-0.006c0.101,1.515,0.706,2.798,1.818,3.846c1.112,1.051,2.425,1.552,3.944,1.509  c0.7-0.021,1.078-0.031,1.136-0.034l0.024,0.877l-7.001,0.202L260.418,465.701z"></path><path fill="#453623" d="M289.62,463.688c-0.159,1.228-0.009,2.212,0.446,2.948c0.458,0.739,1.057,1.252,1.805,1.543  c0.748,0.287,1.466,0.36,2.15,0.214l0.773-0.165l0.18,0.858l-17.219,3.663l-0.18-0.858l0.77-0.162  c1.313-0.281,2.581-0.984,3.806-2.108c1.222-1.127,2.083-2.758,2.584-4.894L289.62,463.688z M296.359,404.859l2.047,5.831  l-9.824,59.486l-5.141,1.094l10.853-56.749c0.324-1.561,0.593-2.902,0.803-4.023c0.208-1.118,0.367-2.196,0.473-3.235  c0.107-1.036,0.113-1.784,0.015-2.242L296.359,404.859z M316.474,440.067l0.547,2.572l-26.814,5.703l-0.547-2.572L316.474,440.067z   M296.359,404.859l38.256,55.258l-7.282,1.549l-30.956-48.306L296.359,404.859z M323.973,456.382l7.023-1.494  c1.271,1.759,2.706,2.902,4.31,3.424c1.604,0.525,3.064,0.648,4.377,0.37l0.684-0.147l0.183,0.855l-19.275,4.099l-0.183-0.855  l0.773-0.165c1.084-0.229,1.955-0.907,2.612-2.031C325.134,459.314,324.963,457.961,323.973,456.382z"></path><path fill="#453623" d="M339.964,390.42c0.849-0.385,1.793-0.748,2.826-1.09c1.029-0.339,2.053-0.626,3.07-0.864  c1.014-0.232,1.949-0.434,2.804-0.599c0.855-0.162,1.543-0.235,2.065-0.217l4.02,8.852l-0.718,0.327  c-1.158-2.554-2.948-4.16-5.367-4.826c-2.416-0.666-4.875-0.431-7.374,0.703c-2.926,1.326-4.875,3.317-5.85,5.972  s-0.907,5.208,0.202,7.652c0.461,1.011,1.222,2.089,2.291,3.241c1.066,1.152,2.477,2.034,4.231,2.648l22.299,7.383  c2.273,0.764,4.06,1.879,5.364,3.336c1.301,1.463,2.315,2.99,3.039,4.585c2.004,4.414,2.291,8.611,0.861,12.594  s-4.432,7.013-9.005,9.088c-1.277,0.58-2.838,1.127-4.686,1.646c-1.851,0.519-3.736,0.816-5.657,0.886  c-1.924,0.07-3.659-0.183-5.205-0.764c-0.547-0.779-1.109-1.805-1.686-3.082c-0.58-1.277-1.084-2.667-1.509-4.173  c-0.428-1.503-0.721-2.926-0.88-4.267l0.718-0.324c0.965,2.832,2.386,5.04,4.258,6.626c1.876,1.588,3.965,2.483,6.268,2.685  c2.306,0.205,4.603-0.275,6.894-1.445c2.85-1.488,4.9-3.65,6.143-6.491s1.142-5.856-0.305-9.045c-0.699-1.543-1.601-2.816-2.7-3.827  c-1.097-1.005-2.358-1.732-3.779-2.178l-21.755-7.246c-2.27-0.764-4.13-1.894-5.575-3.385c-1.448-1.491-2.52-3.009-3.22-4.551  c-1.014-2.233-1.46-4.628-1.338-7.185c0.122-2.554,0.938-4.961,2.447-7.218C334.664,393.612,336.934,391.795,339.964,390.42z   M350.295,386.693l0.761,1.674l-6.06,2.752l-0.761-1.674L350.295,386.693z"></path><path fill-rule="evenodd" clip-rule="evenodd" fill="#FFFFFF" d="M332.443,161.061c2.922,0.113,4.688-1.109,6.244-4.606  c-1.405,5.452-2.697,6.543-5.854,7.814c1.349,5.892,10.342,13.41,13.231,17.482c4.277,4.157,0.889,5.654-2.182,8.217  c-2.503,2.095-3.745,3.491-2.325,7.059c0.486,1.231,1.51,1.995,1.897,3.65c0.231,1.35-2.415,2.841-2.331,3.354  c0.283,1.689,1.68,2.7,0.478,4.784c-1.952,2.56-4.299,1.918-4.371,6.357c0.067,3.299,4.052,11.409-6.532,14.005  c-8.663,2.141-15.16-0.192-23.383-0.913c-0.493-0.058-3.722,0.226-6.786,2.694c-4.313,3.366-10.303,18.658-13.923,29.826  c-0.076,0.229-0.154,0.467-0.215,0.706c-12.946-4.845-30.304-8.861-28.382-25.079c2.39-20.148,30.667-27.754,42.377-49.149  c8.677-15.851,2.899-33.949,15.788-47.335c-6.916,3.473-12.22,18.456-13.088,26.652c-3.676,34.707-51.921,46.522-56.108,66.252  c-5.995,28.24,50.195,31.774,70.51,37.74c15.015,4.405,26.954,12.454,20.802,36.198c2.867-12.2-4.034-17.497-14.42-19.44  c6.934,6.983-4.409,32.88,11.353,35.849c3.36,0.626,8.535-0.984,9.61-3.702l-1.459,2.703c-1.054,0.47-1.993,2.349-6.47,3.415  c-11.938,2.844-21.33-8.596-21.935-14.986c-1.88,10.233,3.017,15.777,10.256,21.291c8.052,6.13,3.716,13.498,6.621,18.716  c0.423,0.764,0.333,0.48,0.583,1.188c-7.268-3.717-1.106-6.509-12.592-10.511c12.374,12.79-10.265,29.251-15.617,28.814  c2.373-1.656,4.542-3.891,5.678-6.323c2.451-5.227-0.845-10.853-5.866-12.777c-7.305-2.826-32.216-1.115-27.869-19.15  c-4.477,11.898,3.943,14.946,8.527,16.526c18.528,6.375,14.584,24.77,3.434,27.984c12.162-20.207-30.267-21.123-42.595-18.563  c-13.017,2.709-27.776,11.498-32.262,1.023c-1.252-2.923-2.254-5.343-3.191-7.429c-9.24-14.421-54.082-11.922-54.485-58.145  c-1.743,1.048-22.413,7.768-29.1-8.526c8.386,11.211,21.3,2.358,23.977-6.778c1.15-3.904-1.081-7.884-1.697-12.463  c-2.882-21.581,8.577-29.877,15.313-43.611c-2.016,0.11-18.288,2.312-16.955-15.313c4.128,12.524,16.837,10.936,20.985,6.79  c4.26-4.255,3.253-11.876-0.802-15.954c-1.445-3.718-2.816-4.277-3.763-8.95c-0.857-4.234,0.063-6.412,0.109-10.566l2.225-7.13  c0.759-1.659,1.17-3.284,2.367-4.179l0.568-1.888c2.23-3.076,3.612-5.782,6.354-8.364c1.359-1.277,2.406-1.689,3.95-2.663  c18.975-11.977,26.829-25.949,37.91-38.69c4.559-5.236,10.134-9.439,15.369-11.8c6.093-2.737,10.119-4.487,17.738-5.975  c31.31-6.146,55.94-0.996,75.033,25.149c10.545-15.942-14.954-3.901-9.815-15.664c1.835,13.141,27.044-4.313,10.882,19.989  C327.079,127.152,332.451,156.177,332.443,161.061L332.443,161.061z"></path><path fill-rule="evenodd" clip-rule="evenodd" fill="#453623" d="M407.708,389.258c2.716,0,4.913,2.2,4.913,4.921  c0,2.709-2.198,4.912-4.913,4.912c-2.712,0-4.913-2.202-4.913-4.912C402.795,391.458,404.996,389.258,407.708,389.258  L407.708,389.258z"></path><path fill-rule="evenodd" clip-rule="evenodd" fill="#453623" d="M88.857,389.258c2.713,0,4.915,2.2,4.915,4.921  c0,2.709-2.202,4.912-4.915,4.912c-2.716,0-4.918-2.202-4.918-4.912C83.939,391.458,86.142,389.258,88.857,389.258L88.857,389.258z"></path></svg>