<?xml version="1.0" encoding="UTF-8"?>
<svg id="Layer_1" xmlns="http://www.w3.org/2000/svg" version="1.1" viewBox="0 0 89.22 141.18">
  <!-- Generator: Adobe Illustrator 30.2.1, SVG Export Plug-In . SVG Version: 2.1.1 Build 1)  -->
  <defs>
    <style>
      .st0, .st1 {
        fill-rule: evenodd;
      }

      .st0, .st2 {
        fill: #fff;
      }
    </style>
  </defs>
  <g id="_x37_u4lII.tif">
    <path d="M44.61,138.42h-.03c-6.32-10.68-12.47-21.45-18.31-32.45-7.6-14.29-18.69-36.33-22.63-51.67-.64-2.47-1.12-4.89-1.34-7.44-.02-.21,0-.44-.08-.54v-2.86c0-.48.1-1.03.14-1.57.8-10.59,5.57-20.46,13.32-27.7,16.54-15.47,42.3-15.2,58.52.63,7.57,7.39,12.28,17.33,12.72,27.92l.07,1.61c.02.47.03.89,0,1.36l-.13,1.87c-.28,4.14-2.47,11.19-3.91,15.24-2.92,8.2-6.82,16.9-10.63,24.77-2.94,6.07-6,12.07-9.17,18.02-5.92,11.12-12.08,22.05-18.55,32.81Z"/>
  </g>
  <g>
    <path class="st2" d="M12.53,26.22c.04-.08.08-.16.14-.25.05-.09.11-.17.17-.25.06-.08.12-.15.17-.21.05-.06.1-.11.14-.14l.83.4-.03.07c-.24-.12-.46-.12-.68-.03-.22.1-.38.26-.49.5-.13.27-.15.53-.06.79.09.25.25.43.48.54.09.05.21.08.36.1.15.02.3,0,.47-.06l2.06-.81c.21-.08.41-.11.59-.08.18.03.35.08.5.15.41.2.69.49.82.86.14.38.1.78-.11,1.2-.06.12-.14.25-.24.4-.1.15-.22.28-.36.41-.14.12-.28.21-.42.26-.09-.02-.19-.06-.31-.12-.12-.06-.24-.13-.36-.21-.12-.08-.23-.17-.32-.26l.03-.07c.24.15.48.22.71.22.23,0,.44-.06.62-.18.18-.12.32-.3.41-.52.12-.28.14-.56.05-.84-.08-.28-.27-.49-.57-.64-.14-.07-.29-.11-.43-.12-.14,0-.28.02-.41.07l-2.02.78c-.21.08-.41.11-.61.09-.2-.02-.36-.07-.51-.14-.21-.1-.38-.25-.53-.44-.15-.19-.23-.42-.26-.67-.03-.25.03-.52.17-.81ZM13.06,25.33l.16.08-.27.57-.16-.08.27-.56Z"/>
    <path class="st2" d="M15.36,21.64l.51.29,2.99,4.84-.3.4-2.74-4.71c-.07-.13-.14-.24-.19-.34-.05-.09-.11-.18-.17-.26-.06-.08-.1-.13-.14-.16l.04-.06ZM15.36,21.64l6.15,1.56-.42.56-5.2-1.52-.53-.6ZM18.97,22.9l.2.15-1.56,2.07-.2-.15,1.56-2.07ZM18.52,26.24c.06.1.14.16.21.18.08.02.15.02.22,0,.07-.03.13-.07.17-.12l.04-.06.07.05-1,1.33-.07-.05.04-.06c.08-.1.12-.23.14-.39.02-.16-.02-.33-.12-.51l.28-.38ZM20.52,23.59l.41-.54c.2.05.37.04.52-.02.15-.06.26-.14.33-.24l.04-.05.07.05-1.12,1.49-.07-.05.04-.06c.06-.08.08-.19.06-.31-.02-.12-.12-.21-.29-.26Z"/>
    <path class="st2" d="M18.89,18.67l-.02.02c-.1-.1-.22-.16-.37-.16-.14,0-.27.04-.37.13l-.08.07-.06-.06.49-.44.41.45ZM18.87,17.88l3.89,4.28-.4.36-3.89-4.28.4-.36ZM19.26,18.35l-.41-.45.49-.44.06.06s-.03.03-.08.07c-.11.1-.16.22-.17.36,0,.14.04.27.13.38l-.02.02ZM21.97,22.06l.41.45-.49.44-.06-.06.08-.07c.11-.1.16-.22.17-.36,0-.14-.04-.27-.13-.38l.02-.02ZM24.24,20.48l.17.19-1.67,1.52-.17-.19,1.67-1.52ZM23.88,19.33l.55,1.31-1.02.92.05-.39c.22-.2.36-.39.44-.58.08-.19.1-.39.08-.59-.03-.2-.08-.41-.15-.62l.06-.06Z"/>
    <path class="st2" d="M24.27,13.61c.5-.31,1.01-.48,1.52-.5.51-.02.99.09,1.44.34.45.25.84.63,1.15,1.14.32.51.49,1.02.51,1.54s-.09,1-.33,1.45c-.25.45-.62.83-1.12,1.14-.5.31-1,.47-1.51.49-.51.02-.99-.09-1.44-.35-.45-.25-.84-.63-1.15-1.14-.32-.51-.49-1.02-.51-1.54s.09-1,.33-1.45c.25-.45.62-.83,1.12-1.13ZM27.31,18.52c.4-.25.69-.56.86-.94.18-.38.24-.8.19-1.25-.05-.45-.22-.92-.51-1.38-.29-.47-.63-.83-1.01-1.07-.38-.25-.79-.38-1.21-.39-.42-.01-.83.1-1.23.35-.39.24-.68.56-.85.94-.18.38-.24.8-.19,1.25.05.45.22.92.51,1.38.29.47.63.83,1.01,1.08.38.25.79.38,1.21.39.42.01.83-.1,1.22-.35Z"/>
    <path class="st2" d="M28.53,11.27l.5.31,1.89,5.11-.36.13-1.69-4.58c-.1-.26-.24-.58-.43-.94l.08-.03ZM28.53,11.27l6.28,3.15.38.82-6.28-3.14-.38-.83ZM30.39,16.26l.2.55-.64.24-.03-.08c.09-.03.14-.05.15-.05.13-.05.22-.14.28-.26s.06-.26.02-.38h.02ZM30.72,16.13c.05.13.13.22.26.28.13.06.26.06.38.02,0,0,.05-.02.15-.05l.03.08-.64.24-.2-.55h.02ZM32.17,10.06l.64-.24.2.55h-.02c-.05-.13-.14-.22-.27-.28-.12-.06-.25-.06-.39-.01-.09.03-.14.05-.15.05l-.03-.08ZM33.15,9.7l1.68,4.55c.06.17.12.32.19.47.07.15.15.31.24.5l-.07.03-.5-.28-1.89-5.13.35-.13ZM33.77,9.47l.03.08-.14.05c-.13.05-.22.13-.28.26-.06.12-.07.26-.02.39h-.02s-.2-.54-.2-.54l.64-.24Z"/>
    <path class="st2" d="M38.07,9.2h-.02c-.02-.14-.08-.26-.2-.35-.12-.09-.24-.13-.39-.11h-.1s-.02-.07-.02-.07l.66-.07.07.6ZM38.57,13.76l.07.6-.66.07v-.08s.1-.01.1-.01c.14-.02.26-.08.35-.19s.13-.24.12-.38h.02ZM38.52,8.55l.62,5.75-.53.06-.62-5.75.53-.06ZM40.14,8.37c.59-.06,1.11,0,1.58.19.47.19.85.49,1.14.89s.48.9.54,1.47c.06.58,0,1.09-.21,1.55-.2.46-.51.83-.93,1.12-.41.29-.92.47-1.5.53l-1.76.19-.03-.25c.24-.03.44-.05.62-.07s.35-.04.53-.06c.18-.02.38-.04.62-.07.47-.05.87-.2,1.19-.46.32-.26.56-.59.71-1.01s.2-.89.14-1.41c-.06-.53-.2-.98-.44-1.35s-.54-.65-.92-.83c-.37-.18-.79-.25-1.26-.2-.25.03-.46.05-.65.07-.18.02-.37.04-.55.06-.18.02-.4.04-.65.07l-.03-.25,1.85-.2Z"/>
    <path class="st2" d="M44.72,13.3l-.02.6-.66-.03v-.08s.11,0,.11,0c.14,0,.27-.04.37-.14s.16-.22.18-.36h.02ZM44.89,8.72h-.02c0-.14-.04-.27-.14-.37-.1-.11-.22-.16-.37-.17h-.1s0-.09,0-.09l.66.03-.02.6ZM45.43,8.14l-.22,5.78-.54-.02.22-5.78.54.02ZM47.45,13.75v.26s-2.26-.09-2.26-.09v-.26s2.26.09,2.26.09ZM47.2,11.02v.25s-1.91-.07-1.91-.07v-.25s1.91.07,1.91.07ZM47.66,8.22v.26s-2.26-.09-2.26-.09v-.26s2.26.09,2.26.09ZM47.99,12.68l-.53,1.32-1.37-.05.31-.24c.29.01.53-.03.72-.11.19-.08.34-.21.46-.37.12-.16.23-.34.33-.55h.08ZM47.66,8.07v.24s-1.01-.13-1.01-.13c.12,0,.25,0,.38-.01.14-.01.26-.03.38-.04.12-.02.2-.04.25-.06ZM47.19,11.25l-.02.55h-.08s0-.13,0-.13c0-.11-.03-.21-.1-.29-.07-.08-.17-.13-.28-.13v-.02s.48.02.48.02ZM47.22,10.49l-.02.55-.48-.02v-.02c.11,0,.21-.04.29-.12.08-.08.12-.17.13-.28v-.12s.09,0,.09,0ZM47.65,8.45l-.03.66h-.08s0-.15,0-.15c0-.13-.04-.25-.13-.35-.09-.1-.2-.16-.34-.17v-.02s.57.02.57.02Z"/>
    <path class="st2" d="M51.1,13.89l-.13.59-.65-.15.03-.08s.03,0,.05.01c.02,0,.04,0,.04.01.14.03.27,0,.4-.07.12-.08.2-.18.23-.32h.02ZM52.75,8.95l-1.28,5.64-.52-.12,1.28-5.64.52.12ZM53.2,9.06c.38.09.68.21.92.39.24.17.4.37.49.61.09.23.1.48.04.75-.05.23-.14.41-.26.56-.12.15-.27.26-.42.34-.16.07-.32.12-.48.12.28.11.5.26.67.45s.29.41.35.65c.06.24.06.5,0,.77-.07.3-.2.55-.4.74s-.45.32-.76.39c-.31.06-.67.05-1.06-.04l-.89-.2c.03-.1.05-.19.07-.29l.85.19c.28.06.53.07.74.01.22-.06.4-.17.54-.34.15-.17.25-.39.31-.66.07-.3.07-.56,0-.77-.07-.21-.19-.39-.35-.53-.16-.14-.34-.25-.55-.33s-.4-.15-.6-.19l.02-.07c.12.03.26.05.42.05.16,0,.31-.01.47-.06.16-.05.3-.14.43-.28.13-.14.22-.34.28-.59.05-.24.06-.46,0-.65-.05-.19-.15-.35-.31-.48-.15-.13-.36-.22-.62-.28l-.74-.17s0-.03,0-.07c0-.04-.01-.11-.02-.2l.85.19ZM52.11,9.43h-.02c.03-.15,0-.28-.07-.4-.08-.12-.19-.2-.33-.23,0,0-.02,0-.04-.01-.02,0-.04,0-.05-.01v-.08s.66.15.66.15l-.13.59Z"/>
    <path class="st2" d="M55.41,15l-.21.57-.62-.23.03-.08.1.04c.13.05.27.04.4-.02.13-.06.22-.16.28-.29h.02ZM57.7,10.32l-2.01,5.42-.5-.19,2.01-5.42.5.19ZM57.87,16.28l-.09.24-2.12-.78.09-.24,2.12.78ZM58.72,15.44l-.92,1.09-1.29-.48.37-.14c.27.1.51.14.72.12.2-.02.39-.09.56-.2s.33-.26.48-.42l.08.03ZM57.01,10.71h-.02c.05-.14.04-.28-.02-.41-.06-.13-.16-.22-.3-.27l-.09-.03.02-.08.62.23-.21.57ZM58.48,13.61l-.09.23-1.78-.66.09-.23,1.78.66ZM59.79,11.1l-.09.24-2.12-.78.09-.24,2.12.78ZM58.4,13.83l-.19.51-.08-.03.04-.12c.04-.1.04-.21,0-.31-.04-.1-.12-.17-.22-.21v-.02s.46.17.46.17ZM58.66,13.11l-.19.51-.45-.17v-.02c.11.03.21.03.31-.02.1-.05.17-.12.21-.23l.04-.11.08.03ZM59.84,10.96l-.08.22-.91-.44c.11.04.24.08.37.11.13.03.26.06.37.08.12.02.2.03.26.02ZM59.71,11.31l-.23.62-.08-.03.05-.14c.05-.12.04-.25-.01-.37-.05-.12-.14-.21-.27-.26v-.02s.54.2.54.2Z"/>
    <path class="st2" d="M59.55,16.66c-.09.08-.14.16-.15.24s0,.15.03.22c.03.07.08.12.14.15l.07.04-.04.07-1.45-.82.04-.07.06.04c.11.06.24.09.4.09s.32-.07.49-.18l.41.23ZM63.7,12.91l-.22.54-4.41,3.6-.43-.24,4.31-3.34c.12-.09.22-.17.31-.23.08-.07.16-.13.24-.2.07-.07.12-.12.14-.16l.07.04ZM62.93,16.66l-.12.22-2.25-1.27.12-.22,2.25,1.27ZM62.44,18.28l.59.33c-.02.2.01.37.09.51.08.14.18.24.29.3l.06.03-.04.07-1.62-.91.04-.07.07.04c.09.05.2.06.31.02.12-.04.19-.14.22-.32ZM63.7,12.91l-.74,6.3-.61-.34.82-5.35.53-.6Z"/>
    <path class="st2" d="M67.58,15.54l-2.34,2.78c-.26.3-.43.62-.51.94-.08.33-.08.64.02.94.09.3.27.56.54.78.28.24.58.38.89.44.31.06.62.02.92-.09.3-.12.57-.32.82-.61l2.41-2.86.3.25-2.41,2.86c-.28.33-.59.56-.94.68-.35.13-.71.15-1.08.07-.37-.08-.73-.26-1.07-.55-.35-.29-.6-.62-.75-.98s-.19-.72-.13-1.09c.06-.37.23-.72.51-1.05l2.42-2.87.41.35ZM67.19,15.21l-.32.38-.02-.02c.08-.09.11-.2.09-.31s-.07-.21-.16-.29l-.1-.09.05-.06.46.38ZM68.02,15.91l-.05.06-.1-.09c-.09-.08-.2-.12-.31-.11-.12,0-.21.05-.29.14h-.01s.32-.39.32-.39l.45.38ZM70.35,17.87l-.32.38-.02-.02c.08-.09.11-.2.09-.31s-.07-.21-.16-.29l-.1-.09.05-.06.46.38ZM71.06,18.48l-.05.06-.1-.09c-.09-.08-.2-.12-.31-.11-.12,0-.21.05-.29.15h-.01s.32-.39.32-.39l.45.38Z"/>
    <path class="st2" d="M69.12,24.25l-.47.37-.41-.52.07-.05.07.08c.09.11.2.18.35.19.14.02.27-.02.39-.1l.02.02ZM73.49,21.46l-4.53,3.56-.33-.42,4.53-3.56.33.42ZM69.42,24.63l.02.02c-.11.09-.17.21-.19.35-.02.14.02.27.11.38l.07.08-.07.05-.41-.52.47-.37ZM72.05,19.93l-.02.02c-.09-.1-.2-.17-.33-.18-.13-.02-.25.02-.36.1l-.11.09-.06-.06.53-.41.35.45ZM74.83,23.11l-.2.15-2.96-3.76.19-.15,2.96,3.76ZM71.99,19.26c.02.06.05.14.1.24.05.1.11.21.19.33.07.12.14.22.22.31l-.69-.74.19-.15ZM74.65,23.25l-.53.41-.04-.07.11-.09c.11-.09.17-.19.18-.33.01-.13-.02-.25-.1-.36l.02-.02.35.45ZM74.94,23.02l-.19.15-.55-.85c.07.1.16.19.26.29.1.1.19.18.28.26.09.08.16.13.21.15Z"/>
    <path class="st2" d="M71.13,27.12l-.54.27-.3-.59.07-.04.05.1c.07.13.17.21.3.26.14.04.27.04.4-.02v.02ZM75.98,25.22l-5.15,2.64-.25-.48,5.15-2.64.24.48ZM72.08,29.72l-.23.12-1.03-2.01.23-.12,1.03,2.01ZM73.27,29.68l-1.41.18-.63-1.22.36.15c.13.26.28.45.45.57s.35.2.55.23c.2.03.41.03.64.02l.04.07ZM74.33,28.17l-.22.11-.87-1.69.22-.11.87,1.69ZM74.13,28.27l-.49.25-.04-.07.11-.06c.1-.05.17-.13.2-.23.04-.11.03-.21-.02-.3h.01s.22.42.22.42ZM74.81,27.93l-.49.25-.22-.43h.01c.05.09.14.15.24.18.11.03.21.02.31-.03l.1-.05.04.07ZM75.21,25.03v-.02c.12-.07.2-.17.24-.31.04-.14.03-.27-.03-.4l-.05-.09.07-.04.3.59-.54.28ZM77,27.2l-.23.12-1.03-2.01.23-.12,1.03,2.01ZM76.79,27.31l-.59.3-.04-.07.13-.07c.12-.06.2-.15.24-.28.04-.13.04-.25-.02-.38h.01s.26.5.26.5ZM77.13,27.13l-.21.11-.38-.94c.06.11.12.22.2.33.08.11.15.22.22.31.07.09.13.16.17.19ZM76.84,25.61c.17.05.33.09.49.14.16.05.32.1.48.15.16.05.31.1.47.16-.03.08-.07.17-.1.26-.04.09-.08.17-.13.25-.14-.09-.28-.19-.42-.28-.14-.09-.28-.19-.41-.29-.13-.1-.26-.19-.4-.29l.02-.08Z"/>
    <path class="st0" d="M15.24,66.31c7.28,7.06,18.4,10.82,29.6,10.78,11.06-.05,22.09-3.81,29.15-10.78l-7.76-8.99c-5.39,4.36-12.15,7.09-19.54,7.45-.69.04-1.38.05-2.08.04,0,.04-1.89-.03-2.07-.04-7.39-.36-14.15-3.09-19.54-7.45l-7.76,8.99h0ZM80.8,64.89c-.9,2.03-7.23,7.48-9.18,8.06l3.13-6.92-6.05-6.8,2.77-2.63,2.68,6.14,6.66,2.16h0ZM8.42,64.89c.9,2.03,7.23,7.48,9.19,8.06l-3.13-6.92,6.05-6.8-2.77-2.63-2.56,6.03-6.77,2.27h0Z"/>
    <path d="M27.02,70.48c-.12.14-.18.27-.19.4,0,.13.03.24.09.34.07.1.15.16.24.2l.11.04-.05.12-2.4-.96.05-.12.11.04c.18.07.4.09.64.05.24-.04.48-.17.72-.39l.68.27ZM32.65,63.86l-.23.88-6.06,6.45-.72-.29,5.97-6.03c.17-.16.31-.31.43-.42.12-.12.22-.24.32-.36.1-.12.16-.21.19-.27l.11.04ZM32.22,69.79l-.14.36-3.74-1.5.14-.36,3.74,1.5ZM31.8,72.4l.98.39c.01.32.09.57.24.77s.32.33.5.4l.1.04-.05.12-2.68-1.08.05-.12.11.04c.15.06.31.05.48-.03.17-.08.26-.26.27-.54ZM32.65,63.86l.14,9.87-1.01-.41.18-8.42.69-1.04Z"/>
    <path d="M36.49,73.63l-.12.93-1.02-.14.02-.13.17.02c.22.03.42-.02.6-.16.18-.14.29-.31.32-.53h.04ZM38.35,65.75l-1.19,8.92-.83-.11,1.19-8.92.83.11ZM37.44,66.57h-.04c.02-.23-.04-.43-.17-.61-.14-.18-.31-.28-.54-.31l-.17-.02.02-.13,1.02.14-.12.93ZM37.24,73.73h.04c-.03.23.03.43.17.61.14.18.32.28.54.31l.15.02-.02.13-1.01-.13.12-.93ZM39.98,65.96c.38.05.72.15,1.02.3.3.15.53.35.72.58.18.24.31.51.39.82s.09.65.04,1.02c-.05.41-.2.79-.44,1.13-.24.35-.54.62-.9.81-.36.19-.74.26-1.15.2.14.08.28.22.42.43.15.21.27.4.38.59.19.36.35.67.49.94.14.26.29.52.44.77.15.25.28.46.39.61.14.21.29.4.44.57.15.17.32.31.51.42.19.11.41.18.65.22l-.02.13-.7-.09c-.39-.05-.72-.16-.99-.31-.27-.16-.49-.34-.66-.54s-.32-.39-.43-.57c-.02-.04-.08-.14-.17-.32-.09-.18-.2-.39-.33-.63-.13-.25-.25-.49-.38-.73-.12-.24-.23-.45-.32-.62-.09-.17-.14-.27-.15-.3-.13-.23-.29-.45-.46-.66-.17-.2-.37-.32-.6-.35l.02-.13c.26.04.49.07.68.09.22.02.47.02.74,0,.27-.02.53-.11.79-.27.25-.16.47-.42.64-.78.04-.09.07-.2.11-.34.04-.14.06-.28.07-.41.07-.58-.02-1.06-.25-1.44s-.59-.62-1.07-.71c-.24-.05-.48-.09-.73-.12-.25-.03-.55-.07-.89-.11,0,0,0-.05-.02-.11-.01-.07-.03-.17-.06-.3l1.8.24Z"/>
    <path d="M45.14,67.21h-.04c-.02-.22-.1-.41-.27-.56-.16-.15-.36-.23-.58-.22h-.17s0-.12,0-.12l1.03-.03.03.94ZM45.34,74.33l.03.94-1.03.03v-.13s.16,0,.16,0c.22,0,.41-.09.57-.25.15-.16.23-.36.23-.58h.04ZM45.91,66.24l.26,9-.84.02-.26-9,.84-.02ZM45.89,67.18l-.03-.94,1.03-.03v.13s-.06,0-.16,0c-.22,0-.41.09-.57.25-.15.16-.23.36-.23.58h-.04ZM46.1,74.3h.04c.01.22.1.41.27.56.16.15.36.23.58.22.1,0,.16,0,.17,0v.13s-1.02.03-1.02.03l-.03-.94Z"/>
    <path d="M50.39,74.01c-.02.18,0,.32.07.43.07.11.16.18.26.23.11.04.22.05.32.03l.11-.02.03.13-2.53.54-.03-.13.11-.02c.19-.04.38-.14.56-.31.18-.17.31-.4.38-.72l.72-.15ZM51.37,65.37l.3.86-1.44,8.73-.75.16,1.59-8.33c.05-.23.09-.43.12-.59.03-.16.05-.32.07-.47.02-.15.02-.26,0-.33l.11-.02ZM54.33,70.54l.08.38-3.94.84-.08-.38,3.94-.84ZM51.37,65.37l5.62,8.11-1.07.23-4.54-7.09v-1.25ZM55.43,72.94l1.03-.22c.19.26.4.43.63.5.24.08.45.1.64.05l.1-.02.03.13-2.83.6-.03-.13.11-.02c.16-.03.29-.13.38-.3.1-.17.07-.36-.07-.6Z"/>
    <path d="M57.78,63.25c.12-.06.26-.11.41-.16.15-.05.3-.09.45-.13.15-.03.29-.06.41-.09.13-.02.23-.03.3-.03l.59,1.3-.11.05c-.17-.37-.43-.61-.79-.71-.35-.1-.72-.06-1.08.1-.43.19-.72.49-.86.88s-.13.76.03,1.12c.07.15.18.31.34.48.16.17.36.3.62.39l3.27,1.08c.33.11.6.28.79.49.19.21.34.44.45.67.29.65.34,1.26.13,1.85s-.65,1.03-1.32,1.33c-.19.09-.42.17-.69.24-.27.08-.55.12-.83.13-.28.01-.54-.03-.76-.11-.08-.11-.16-.26-.25-.45-.09-.19-.16-.39-.22-.61-.06-.22-.11-.43-.13-.63l.11-.05c.14.42.35.74.63.97.28.23.58.36.92.39.34.03.68-.04,1.01-.21.42-.22.72-.54.9-.95s.17-.86-.04-1.33c-.1-.23-.24-.41-.4-.56-.16-.15-.35-.25-.55-.32l-3.19-1.06c-.33-.11-.61-.28-.82-.5-.21-.22-.37-.44-.47-.67-.15-.33-.21-.68-.2-1.05.02-.37.14-.73.36-1.06.22-.33.55-.6,1-.8ZM59.29,62.7l.11.25-.89.4-.11-.25.89-.4Z"/>
    <path class="st0" d="M56.67,29.58c.43.02.69-.16.92-.68-.21.8-.4.96-.86,1.15.2.87,1.52,1.97,1.94,2.57.63.61.13.83-.32,1.21-.37.31-.55.51-.34,1.04.07.18.22.29.28.54.03.2-.35.42-.34.49.04.25.25.4.07.7-.29.38-.63.28-.64.93,0,.48.59,1.67-.96,2.06-1.27.31-2.23-.03-3.43-.13-.07,0-.55.03-1,.4-.63.49-1.51,2.74-2.04,4.38-.01.03-.02.07-.03.1-1.9-.71-4.45-1.3-4.17-3.68.35-2.96,4.5-4.07,6.22-7.22,1.27-2.33.43-4.98,2.32-6.95-1.02.51-1.79,2.71-1.92,3.91-.54,5.1-7.62,6.83-8.24,9.73-.88,4.15,7.37,4.66,10.35,5.54,2.2.65,3.96,1.83,3.05,5.31.42-1.79-.59-2.57-2.12-2.85,1.02,1.03-.65,4.83,1.67,5.26.49.09,1.25-.14,1.41-.54l-.21.4c-.15.07-.29.34-.95.5-1.75.42-3.13-1.26-3.22-2.2-.28,1.5.44,2.32,1.51,3.13,1.18.9.55,1.98.97,2.75.06.11.05.07.09.17-1.07-.55-.16-.96-1.85-1.54,1.82,1.88-1.51,4.29-2.29,4.23.35-.24.67-.57.83-.93.36-.77-.12-1.59-.86-1.88-1.07-.41-4.73-.16-4.09-2.81-.66,1.75.58,2.19,1.25,2.43,2.72.94,2.14,3.64.5,4.11,1.79-2.97-4.44-3.1-6.25-2.73-1.91.4-4.08,1.69-4.74.15-.18-.43-.33-.78-.47-1.09-1.36-2.12-7.94-1.75-8-8.54-.26.15-3.29,1.14-4.27-1.25,1.23,1.65,3.13.35,3.52-1,.17-.57-.16-1.16-.25-1.83-.42-3.17,1.26-4.39,2.25-6.4-.3.02-2.68.34-2.49-2.25.61,1.84,2.47,1.61,3.08,1,.63-.62.48-1.74-.12-2.34-.21-.55-.41-.63-.55-1.31-.13-.62,0-.94.02-1.55l.33-1.05c.11-.24.17-.48.35-.61l.08-.28c.33-.45.53-.85.93-1.23.2-.19.35-.25.58-.39,2.79-1.76,3.94-3.81,5.57-5.68.67-.77,1.49-1.39,2.26-1.73.89-.4,1.49-.66,2.6-.88,4.6-.9,8.21-.15,11.02,3.69,1.55-2.34-2.2-.57-1.44-2.3.27,1.93,3.97-.63,1.6,2.93.12.07.91,4.33.91,5.05h0Z"/>
    <path class="st1" d="M67.72,63.08c.4,0,.72.32.72.72s-.32.72-.72.72-.72-.32-.72-.72.32-.72.72-.72h0Z"/>
    <path class="st1" d="M20.91,63.08c.4,0,.72.32.72.72s-.32.72-.72.72-.72-.32-.72-.72.32-.72.72-.72h0Z"/>
  </g>
</svg>